<?xml version="1.0" standalone="no"?>
<!DOCTYPE svg PUBLIC "-//W3C//DTD SVG 20010904//EN"
 "http://www.w3.org/TR/2001/REC-SVG-20010904/DTD/svg10.dtd">
<svg version="1.0" xmlns="http://www.w3.org/2000/svg"
 width="512.000000pt" height="512.000000pt" viewBox="0 0 512.000000 512.000000"
 preserveAspectRatio="xMidYMid meet">
<metadata>
Created by potrace 1.14, written by Peter Selinger 2001-2017
</metadata>
<g transform="translate(0.000000,512.000000) scale(0.100000,-0.100000)"
fill="#000000" stroke="none">
<path d="M5060 5080 c-8 -5 -42 -18 -75 -30 -33 -12 -73 -28 -90 -36 -16 -7
-59 -24 -95 -38 -107 -40 -1023 -397 -1045 -406 -11 -5 -189 -75 -395 -155
-206 -80 -392 -153 -412 -162 -28 -12 -64 -50 -140 -147 -56 -72 -106 -135
-111 -141 -4 -5 -76 -98 -160 -205 l-153 -195 -85 1 c-107 2 -680 13 -956 20
-205 4 -212 4 -226 -16 -8 -12 -46 -56 -84 -98 -39 -42 -85 -95 -104 -117 -19
-22 -43 -49 -54 -61 -11 -11 -31 -34 -45 -50 -79 -92 -156 -180 -166 -189 -6
-5 -66 -73 -134 -150 -110 -126 -180 -205 -291 -330 -20 -22 -47 -53 -60 -69
-13 -16 -35 -41 -49 -55 -14 -15 -34 -37 -45 -50 l-20 -23 75 6 c80 7 205 12
495 21 99 4 225 8 280 10 55 2 192 7 305 10 113 4 220 8 238 10 17 2 32 -1 32
-6 0 -8 -85 -126 -101 -139 -3 -3 -30 -36 -59 -75 -30 -38 -78 -100 -107 -137
l-52 -66 111 -109 c61 -59 132 -128 158 -153 145 -140 497 -480 526 -508 l33
-33 198 156 c109 85 205 161 213 168 8 7 32 25 53 41 l38 29 -5 -94 c-3 -52
-8 -137 -11 -189 -2 -52 -7 -144 -10 -205 -3 -60 -8 -146 -10 -190 -2 -44 -7
-127 -10 -185 -3 -58 -8 -141 -10 -185 -3 -44 -7 -123 -10 -175 -12 -255 -17
-336 -22 -343 -14 -23 20 1 78 56 65 61 271 254 339 317 19 18 98 91 175 164
173 163 270 254 360 338 39 36 103 97 144 135 l74 70 3 134 c1 74 5 256 8 404
4 149 8 394 11 545 5 271 6 275 28 295 30 26 67 55 272 216 94 74 177 139 185
146 104 84 245 193 251 193 11 0 37 69 183 475 76 209 141 389 145 400 12 29
48 127 146 400 47 132 103 287 125 345 21 58 62 170 91 250 28 80 54 151 56
158 6 14 -5 15 -27 2z m-1319 -964 c167 -37 317 -188 364 -367 13 -48 14 -189
2 -234 -22 -85 -96 -214 -135 -239 -8 -4 -21 -17 -31 -28 -27 -32 -131 -85
-204 -102 -115 -29 -232 -15 -344 40 -58 28 -183 137 -183 159 0 7 -4 15 -8
17 -5 2 -20 28 -35 59 -50 107 -59 254 -21 366 19 56 60 130 85 155 10 10 21
24 26 31 28 46 172 127 263 148 37 8 176 5 221 -5z"/>
</g>
</svg>
